<svg width="190" height="250" viewBox="0 0 190 250" fill="none" xmlns="http://www.w3.org/2000/svg">
<g id="quasavrContainer">
<g id="quazavr">
<path id="rightFlipper" d="M100.03 197.009C92.8298 207.415 89.0347 218.795 88.6599 231.116C88.6278 232.171 89.6161 232.963 90.6412 232.704C101.591 229.94 109.854 225.599 115.398 219.647L115.624 219.401C121.123 213.303 121.83 205.169 117.872 195.255L117.727 194.898L117.743 194.941C114.306 184.859 107.68 185.953 100.03 197.009Z" fill="#118286"/>
<g id="spaceGuy">
<path id="spaceGuyMain" d="M134.137 44.4611C134.745 44.6394 135.68 44.9679 136.942 45.4465C144.214 48.2483 150.915 52.7986 156.373 59.0541C174.415 79.7305 171.569 109.373 152.991 114.297C140.776 117.534 134.815 119.56 121.188 123.216C104.033 127.399 89.2723 134.865 80.4757 124.783C62.4338 104.107 64.7982 72.6315 85.7567 54.4808C93.0032 48.2051 101.524 44.3441 110.317 42.8328C112.106 42.4996 113.122 42.3566 113.367 42.4037C120.357 41.6365 127.445 42.333 134.137 44.4611Z" fill="#D1EFF4"/>
<path id="spaceGuyShadow" d="M85.9848 54.5147C59.4866 89.7418 77.6289 124.63 93.975 130.12C88.718 130.39 84.1971 129.17 80.646 125.102C62.5307 104.352 64.9209 72.7483 85.9848 54.5147Z" fill="#B1E4ED"/>
<path id="sparkle" d="M83.6306 65.28C84.2664 65.7445 84.46 66.6343 84.063 67.2676C81.8387 70.8158 80.3557 74.9662 79.616 79.7303C79.4973 80.4943 78.8012 80.9662 78.0611 80.7844C77.321 80.6026 76.8172 79.836 76.9358 79.072C77.7315 73.9476 79.3391 69.4484 81.7606 65.5857C82.1576 64.9524 82.9948 64.8156 83.6306 65.28ZM89.5356 58.3255C90.2034 58.785 90.3063 59.7043 89.7654 60.3788C88.8756 61.4884 88.2224 62.2833 87.7981 62.7722C87.2298 63.4269 86.2464 63.5627 85.6018 63.0755C84.9571 62.5882 84.8952 61.6624 85.4635 61.0077C85.8521 60.56 86.4825 59.7928 87.347 58.7148C87.8879 58.0403 88.8678 57.866 89.5356 58.3255Z" fill="#68E0E5"/>
<g id="leftWhisker">
<path id="leftWhiskerMain" d="M110.317 42.8328L106.43 34.563C104.83 34.984 109.681 32.6969 109.004 33.2512C110.121 35.9043 111.824 38.8171 113.367 42.4037C112.629 42.4037 111.426 42.6565 110.317 42.8328Z" fill="#D1EFF4"/>
<path id="leftWhiskerCircle" d="M109.557 32.765C112.496 30.2101 112.811 25.7606 110.261 22.8268C107.711 19.893 103.261 19.5859 100.322 22.1408C97.3826 24.6957 97.0674 29.1451 99.6178 32.0789C102.168 35.0127 106.618 35.3199 109.557 32.765Z" fill="#30ADB2"/>
</g>
<g id="rightWhisker">
<path id="rightWhiskerMain" d="M134.137 44.4611L140.584 35.6825C139.388 34.5579 143.876 37.425 143.049 37.151C141.369 39.5221 139.334 42.287 136.942 45.4466C136.444 45.2893 135.443 44.8767 134.137 44.4611Z" fill="#D1EFF4"/>
<path id="rightWhiskerCircle" d="M147.628 37.1834C151.264 35.7877 153.082 31.7145 151.689 28.0855C150.296 24.4566 146.219 22.6461 142.583 24.0418C138.947 25.4375 137.129 29.5107 138.522 33.1397C139.915 36.7686 143.992 38.5791 147.628 37.1834Z" fill="#30ADB2"/>
</g>
</g>
<g id="body">
<g id="spikes">
<path id="spike6" d="M27.0782 165.905C25.0739 169.502 26.5144 173.067 30.137 176.438C31.1967 177.424 32.3812 178.342 33.7624 179.293L34.5059 179.795C35.1712 180.235 36.2857 180.956 36.3687 181.011C38.2412 182.261 40.0822 181.223 41.6658 178.83C42.9141 176.944 44.2527 173.916 45.7183 169.705C45.9199 169.125 45.7726 168.481 45.3388 168.048L44.8578 167.573C37.1106 160.037 30.8212 159.188 27.0782 165.905Z" fill="#199BA0"/>
<path id="spike5" d="M46.2549 146.726C42.6843 148.777 42.0829 152.575 43.452 157.33C43.8525 158.721 44.3947 160.119 45.0889 161.645L45.4677 162.458C45.8115 163.178 46.3954 164.37 46.438 164.46C47.3995 166.496 49.5119 166.554 52.1018 165.319C54.1433 164.345 56.8505 162.439 60.2756 159.584C60.7468 159.191 60.9522 158.563 60.8037 157.968L60.6359 157.313C57.8763 146.864 52.923 142.896 46.2549 146.726Z" fill="#199BA0"/>
<path id="spike4" d="M68.3063 138.182C64.3659 139.377 62.9256 142.942 63.1899 147.884C63.2673 149.329 63.4812 150.813 63.8142 152.456L64.0005 153.333C64.1736 154.112 64.4743 155.405 64.4955 155.502C64.9745 157.702 67.0196 158.234 69.821 157.613C72.0292 157.124 75.0959 155.875 79.0754 153.864C79.6229 153.587 79.9642 153.022 79.9535 152.408L79.9372 151.733C79.599 140.93 75.6651 135.95 68.3063 138.182Z" fill="#199BA0"/>
<path id="spike3" d="M156.603 102.786C156.325 98.6777 153.175 96.4723 148.301 95.6184C146.875 95.3686 145.381 95.2432 143.705 95.1981L142.808 95.1822C142.011 95.1757 140.683 95.1778 140.583 95.1766C138.332 95.1485 137.354 97.0214 137.329 99.8908C137.309 102.152 137.836 105.422 138.9 109.751C139.047 110.347 139.521 110.807 140.121 110.934L140.783 111.07C151.385 113.171 157.122 110.458 156.603 102.786Z" fill="#199BA0"/>
<path id="spike2" d="M156.746 82.84C156.04 78.7832 152.677 76.9192 147.741 76.5794C146.297 76.48 144.798 76.5115 143.126 76.6418L142.233 76.7197C141.439 76.7966 140.119 76.9375 140.02 76.9467C137.778 77.1541 137 79.119 137.275 81.9753C137.492 84.2266 138.358 87.4227 139.869 91.6176C140.077 92.1948 140.597 92.6024 141.207 92.6665L141.879 92.7327C152.642 93.7135 158.065 90.4159 156.746 82.84Z" fill="#199BA0"/>
<path id="spike1" d="M143.757 59.9787C140.431 57.551 136.717 58.5463 132.93 61.7312C131.822 62.6628 130.766 63.7265 129.654 64.9815L129.065 65.6583C128.547 66.2651 127.696 67.2834 127.631 67.359C126.162 69.0653 126.968 71.019 129.15 72.8825C130.87 74.3513 133.713 76.049 137.714 78.0168C138.264 78.2876 138.921 78.2199 139.405 77.8422L139.934 77.4225C148.358 70.6514 149.968 64.5125 143.757 59.9787Z" fill="#199BA0"/>
</g>
<path id="bodyMain" d="M94.3837 62.907C86.2643 65.7562 84.6882 74.112 84.6882 87.7739L84.6923 88.3049C84.9524 105.007 97.5647 110.396 121.308 104.655L122.209 104.433C118.937 138.209 116.062 156.15 113.582 158.256C113.496 158.329 109.322 162.124 103.295 158.158C97.267 154.192 79.0902 144.701 55.0315 155.91C48.1139 159.132 43.7926 164.905 40.3677 170.493C36.9428 176.08 36.7295 176.513 33.0268 189.983C29.3242 203.453 12.4787 202.705 12.4787 196.42C12.4787 190.134 18.1099 190.104 20.555 190.796C23.0001 191.489 23.9001 189.843 21.7504 187.289C19.6006 184.735 9.86298 185.033 6.07703 187.289C2.29108 189.545 -1.48005 194.353 0.585909 201.739C2.65186 209.124 11.7624 211.281 17.7409 212.772C23.7194 214.262 32.5228 214.521 38.3184 214.847C44.1141 215.173 75.4195 219.895 90.3419 215.952C105.264 212.009 115.64 204.584 120.766 199.101C125.892 193.618 129.336 186.631 132.707 177.243C134.954 170.984 137.817 151.622 141.297 119.157C143.135 98.5661 143.599 83.7967 142.126 77.4755C140.573 70.807 134.829 66.6245 126.239 64.3663C117.648 62.1081 102.503 60.0577 94.3837 62.907Z" fill="#30ADB2"/>
<path id="head" opacity="0.3" d="M94.3837 62.907C102.503 60.0577 117.648 62.1081 126.239 64.3663C134.829 66.6245 140.573 70.807 142.126 77.4755L142.229 77.947C143.526 84.2678 143.124 97.9916 141.491 116.939L133.155 119.348C129.672 120.348 125.848 121.426 121.089 122.703L120.281 122.903L120.503 120.93C120.948 116.93 121.401 112.611 121.861 107.972L122.209 104.433L121.308 104.655C97.8021 110.339 85.2057 105.114 84.7038 88.8026L84.6923 88.3049L84.6882 87.7739C84.6882 74.112 86.2643 65.7562 94.3837 62.907Z" fill="#68CBDC"/>
<path id="tummy" d="M122.789 196.792C95.3547 230.694 43.7442 214.546 36.0539 214.744C39.7603 209.51 47.0435 208.828 71.3212 206.229C84.0208 204.869 88.6635 195.557 98.4224 191.184C108.992 186.448 122.828 194.564 122.789 196.792Z" fill="#4EC5CA"/>
<path id="bodyFreckles" d="M49 175.515C49.5523 175.515 50 175.962 50 176.515C50 177.067 49.5523 177.515 49 177.515C48.4477 177.515 48 177.067 48 176.515C48 175.962 48.4477 175.515 49 175.515ZM65.5 167.515C66.8807 167.515 68 168.634 68 170.015C68 171.395 66.8807 172.515 65.5 172.515C64.1193 172.515 63 171.395 63 170.015C63 168.634 64.1193 167.515 65.5 167.515ZM53 163.515C54.6569 163.515 56 164.858 56 166.515C56 168.172 54.6569 169.515 53 169.515C51.3431 169.515 50 168.172 50 166.515C50 164.858 51.3431 163.515 53 163.515ZM70.5 158.515C71.3284 158.515 72 159.186 72 160.015C72 160.843 71.3284 161.515 70.5 161.515C69.6716 161.515 69 160.843 69 160.015C69 159.186 69.6716 158.515 70.5 158.515ZM60 157.515C60.5523 157.515 61 157.962 61 158.515C61 159.067 60.5523 159.515 60 159.515C59.4477 159.515 59 159.067 59 158.515C59 157.962 59.4477 157.515 60 157.515ZM81 154.515C82.1046 154.515 83 155.41 83 156.515C83 157.619 82.1046 158.515 81 158.515C79.8954 158.515 79 157.619 79 156.515C79 155.41 79.8954 154.515 81 154.515Z" fill="#68E0E5"/>
<path id="noseFreckles" d="M93 73.5147C94.6569 73.5147 96 75.0817 96 77.0147C96 78.9477 94.6569 80.5147 93 80.5147C91.3431 80.5147 90 78.9477 90 77.0147C90 75.0817 91.3431 73.5147 93 73.5147ZM102.5 74.5147C103.881 74.5147 105 75.634 105 77.0147C105 78.3954 103.881 79.5147 102.5 79.5147C101.119 79.5147 100 78.3954 100 77.0147C100 75.634 101.119 74.5147 102.5 74.5147ZM100.5 67.5147C101.328 67.5147 102 68.1863 102 69.0147C102 69.8431 101.328 70.5147 100.5 70.5147C99.6716 70.5147 99 69.8431 99 69.0147C99 68.1863 99.6716 67.5147 100.5 67.5147Z" fill="#68E0E5"/>
<g id="eye">
<path id="eye5" d="M118.5 92.5147C121.538 92.5147 124 90.0523 124 87.0147C124 83.9771 121.538 81.5147 118.5 81.5147C115.462 81.5147 113 83.9771 113 87.0147C113 90.0523 115.462 92.5147 118.5 92.5147Z" stroke="white" stroke-width="4"/>
<path id="eye4" d="M118.5 94.5147C122.09 94.5147 125 91.6046 125 88.0147C125 84.4249 122.09 81.5147 118.5 81.5147C114.91 81.5147 112 84.4249 112 88.0147C112 91.6046 114.91 94.5147 118.5 94.5147Z" fill="white"/>
<path id="eye3" d="M119 91.5147C121.761 91.5147 124 89.2761 124 86.5147C124 83.7533 121.761 81.5147 119 81.5147C116.239 81.5147 114 83.7533 114 86.5147C114 89.2761 116.239 91.5147 119 91.5147Z" fill="#195A52"/>
<path id="eye2" d="M115 85.5147C115.552 85.5147 116 85.067 116 84.5147C116 83.9624 115.552 83.5147 115 83.5147C114.448 83.5147 114 83.9624 114 84.5147C114 85.067 114.448 85.5147 115 85.5147Z" fill="white"/>
<path id="eye1" d="M118 87.5147C119.105 87.5147 120 86.6193 120 85.5147C120 84.4101 119.105 83.5147 118 83.5147C116.895 83.5147 116 84.4101 116 85.5147C116 86.6193 116.895 87.5147 118 87.5147Z" fill="white"/>
</g>
</g>
<g id="leftFlipper">
<path id="leftFlipperMain" d="M65.5652 194.316C53.57 204.895 45.4228 217.514 41.1868 232.516C40.8993 233.534 41.6663 234.544 42.7234 234.54C56.9568 234.478 68.3909 231.855 76.9631 226.258L77.2565 226.064C85.8036 220.316 89.1374 210.622 87.3197 197.26L87.2625 196.853L87.2665 196.899C86.1863 183.853 78.1543 183.212 65.5652 194.316Z" fill="#199BA0"/>
<path id="flipperShadow" d="M87.5658 199.038C88.8576 211.477 85.4428 220.465 77.3214 226.002C68.3682 232.106 56.9794 234.918 43.155 234.44C56.4962 232.567 66.6345 228.878 73.5698 223.372C80.5052 217.865 85.1705 209.754 87.5658 199.038Z" fill="#118286"/>
</g>
</g>
<g id="checksGroup">
<rect id="check3" x="16" y="91" width="14" height="14" stroke="#199BA0" stroke-width="2" stroke-linejoin="round"/>
<rect id="check2" x="16" y="63" width="14" height="14" stroke="#199BA0" stroke-width="2" stroke-linejoin="round"/>
<rect id="check1" x="16" y="35" width="14" height="14" stroke="#199BA0" stroke-width="2" stroke-linejoin="round"/>
<path id="checkMark" d="M13 37L21.5 45.5L29 38L35.5 31.5" stroke="#68E0E5" stroke-width="3" stroke-linecap="round" stroke-linejoin="round"/>
</g>
</g>
</svg>
